<svg xmlns="http://www.w3.org/2000/svg" viewBox="0 0 512 512" width="16" height="16">
  <path d="M451.97 214.63 L451.9 213.05 L451.77 211.48 L451.59 209.92 L451.36 208.36 L451.08 206.81 L450.74 205.27 L450.36 203.75 L449.93 202.23 L449.45 200.73 L448.92 199.25 L448.34 197.78 L447.71 196.34 L447.04 194.92 L446.32 193.51 L445.55 192.14 L444.74 190.79 L443.89 189.46 L442.99 188.17 L442.05 186.9 L441.08 185.67 L440.06 184.47 L439 183.3 L437.9 182.17 L436.77 181.07 L435.61 180.02 L434.4 179 L433.17 178.02 L431.91 177.08 L430.61 176.18 L429.29 175.33 L427.94 174.52 L426.56 173.76 L425.16 173.04 L423.73 172.36 L422.29 171.74 L420.83 171.16 L419.34 170.63 L417.84 170.15 L416.33 169.71 L414.8 169.33 L413.26 169 L411.71 168.72 L410.15 168.49 L408.59 168.31 L407.02 168.18 L405.45 168.1 L403.87 168.07 L402.3 168.1 L400.72 168.18 L399.15 168.31 L397.59 168.49 L396.03 168.72 L394.48 169 L392.94 169.33 L391.42 169.71 L389.9 170.15 L388.4 170.63 L386.92 171.16 L385.45 171.74 L384.01 172.36 L382.59 173.04 L381.18 173.76 L379.81 174.52 L378.46 175.33 L377.13 176.18 L375.84 177.08 L374.57 178.02 L373.34 179 L372.14 180.02 L370.97 181.07 L369.84 182.17 L368.75 183.3 L367.69 184.47 L366.67 185.67 L365.69 186.9 L364.75 188.17 L363.86 189.46 L363 190.79 L362.19 192.14 L361.43 193.51 L360.71 194.92 L360.03 196.34 L359.41 197.78 L358.83 199.25 L358.3 200.73 L357.82 202.23 L357.38 203.75 L357 205.27 L356.67 206.81 L356.39 208.36 L356.16 209.92 L355.98 211.48 L355.85 213.05 L355.77 214.63 L355.74 216.2 L355.77 217.78 L355.85 219.35 L355.98 220.92 L356.16 222.48 L356.39 224.04 L356.67 225.59 L357 227.13 L357.38 228.66 L357.82 230.17 L358.3 231.67 L358.83 233.15 L359.41 234.62 L360.03 236.06 L360.71 237.49 L361.43 238.89 L362.19 240.27 L363 241.62 L363.86 242.94 L364.75 244.24 L365.69 245.5 L366.67 246.73 L367.69 247.93 L368.75 249.1 L369.84 250.23 L370.97 251.33 L372.14 252.39 L373.34 253.41 L374.57 254.38 L375.84 255.32 L377.13 256.22 L378.46 257.07 L379.81 257.88 L381.18 258.65 L382.59 259.37 L384.01 260.04 L385.45 260.67 L386.92 261.24 L388.4 261.78 L389.9 262.26 L391.42 262.69 L392.94 263.07 L394.48 263.4 L396.03 263.69 L397.59 263.92 L399.15 264.1 L400.72 264.23 L402.3 264.3 L403.87 264.33 L405.45 264.3 L407.02 264.23 L408.59 264.1 L410.15 263.92 L411.71 263.69 L413.26 263.4 L414.8 263.07 L416.33 262.69 L417.84 262.26 L419.34 261.78 L420.83 261.24 L422.29 260.67 L423.73 260.04 L425.16 259.37 L426.56 258.65 L427.94 257.88 L429.29 257.07 L430.61 256.22 L431.91 255.32 L433.17 254.38 L434.4 253.41 L435.61 252.39 L436.77 251.33 L437.9 250.23 L439 249.1 L440.06 247.93 L441.08 246.73 L442.05 245.5 L442.99 244.24 L443.89 242.94 L444.74 241.62 L445.55 240.27 L446.32 238.89 L447.04 237.49 L447.71 236.06 L448.34 234.62 L448.92 233.15 L449.45 231.67 L449.93 230.17 L450.36 228.66 L450.74 227.13 L451.08 225.59 L451.36 224.04 L451.59 222.48 L451.77 220.92 L451.9 219.35 L451.97 217.78 L452 216.2 Z M246.58 306.52 L245.36 307.47 L244.15 308.42 L242.94 309.37 L241.72 310.32 L240.51 311.26 L236.87 314.11 L235.65 315.06 L232.01 317.9 L230.8 318.85 L228.37 320.75 L227.15 321.7 L219.87 327.39 L218.66 328.34 L215.1 331.12 L214.15 331.85 L213.28 332.49 L212.39 333.13 L211.49 333.75 L210.58 334.35 L209.66 334.94 L208.73 335.51 L207.79 336.07 L206.85 336.61 L205.89 337.14 L204.92 337.65 L203.95 338.14 L202.97 338.61 L201.98 339.07 L200.98 339.51 L199.98 339.94 L198.96 340.34 L197.94 340.73 L196.92 341.11 L195.89 341.46 L194.85 341.8 L193.81 342.12 L192.76 342.42 L191.7 342.71 L190.64 342.97 L189.58 343.22 L188.52 343.45 L187.45 343.66 L186.37 343.86 L185.29 344.03 L184.21 344.19 L183.13 344.33 L182.05 344.45 L180.96 344.55 L179.87 344.63 L178.78 344.7 L177.69 344.74 L176.6 344.77 L175.51 344.78 L174.44 344.77 L173.37 344.75 L172.29 344.7 L171.22 344.64 L170.15 344.56 L169.09 344.46 L168.02 344.34 L166.96 344.21 L165.9 344.06 L164.84 343.89 L163.78 343.7 L162.73 343.5 L161.68 343.27 L160.63 343.03 L159.59 342.78 L158.56 342.5 L157.52 342.21 L156.5 341.9 L155.48 341.57 L154.46 341.23 L153.45 340.87 L152.45 340.49 L151.45 340.1 L150.46 339.69 L149.47 339.26 L148.5 338.82 L147.53 338.36 L146.57 337.88 L145.62 337.39 L144.67 336.88 L143.73 336.36 L142.81 335.82 L141.89 335.27 L140.98 334.7 L140.08 334.11 L139.19 333.52 L138.31 332.9 L137.45 332.27 L136.59 331.63 L135.74 330.97 L134.9 330.3 L134.08 329.61 L133.27 328.92 L132.47 328.2 L131.68 327.48 L130.9 326.74 L130.13 325.99 L129.38 325.22 L128.64 324.44 L127.92 323.65 L127.2 322.85 L126.51 322.04 L125.82 321.22 L125.15 320.38 L124.49 319.53 L123.85 318.67 L123.22 317.81 L122.6 316.93 L122.01 316.04 L121.42 315.14 L120.85 314.23 L120.3 313.31 L119.76 312.39 L119.24 311.45 L118.73 310.5 L118.24 309.55 L117.76 308.59 L117.3 307.62 L116.86 306.65 L116.43 305.66 L116.02 304.67 L115.63 303.67 L115.25 302.67 L114.89 301.66 L114.55 300.64 L114.22 299.62 L113.91 298.6 L113.62 297.56 L113.34 296.53 L113.09 295.49 L112.85 294.44 L112.62 293.39 L112.42 292.34 L112.23 291.28 L112.06 290.22 L111.91 289.16 L111.78 288.1 L111.66 287.03 L111.56 285.97 L111.48 284.9 L111.42 283.83 L111.37 282.75 L111.35 281.68 L111.34 280.5 L111.34 232.93 L111.34 231.5 L111.35 230.32 L111.37 229.25 L111.42 228.17 L111.48 227.1 L111.56 226.03 L111.66 224.97 L111.78 223.9 L111.91 222.84 L112.06 221.78 L112.23 220.72 L112.42 219.66 L112.62 218.61 L112.85 217.56 L113.09 216.51 L113.34 215.47 L113.62 214.44 L113.91 213.4 L114.22 212.38 L114.55 211.36 L114.89 210.34 L115.25 209.33 L115.63 208.33 L116.02 207.33 L116.43 206.34 L116.86 205.35 L117.3 204.38 L117.76 203.41 L118.24 202.45 L118.73 201.5 L119.24 200.55 L119.76 199.61 L120.3 198.69 L120.85 197.77 L121.42 196.86 L122.01 195.96 L122.6 195.07 L123.22 194.19 L123.85 193.33 L124.49 192.47 L125.15 191.62 L125.82 190.78 L126.51 189.96 L127.2 189.15 L127.92 188.35 L128.64 187.56 L129.38 186.78 L130.13 186.01 L130.9 185.26 L131.68 184.52 L132.47 183.8 L133.27 183.08 L134.08 182.39 L134.9 181.7 L135.74 181.03 L136.59 180.37 L137.45 179.73 L138.31 179.1 L139.19 178.48 L140.08 177.89 L140.98 177.3 L141.89 176.73 L142.81 176.18 L143.73 175.64 L144.67 175.12 L145.62 174.61 L146.57 174.12 L147.53 173.64 L148.5 173.18 L149.47 172.74 L150.46 172.31 L151.45 171.9 L152.45 171.51 L153.45 171.13 L154.46 170.77 L155.48 170.43 L156.5 170.1 L157.52 169.79 L158.56 169.5 L159.59 169.22 L160.63 168.97 L161.68 168.73 L162.73 168.5 L163.78 168.3 L164.84 168.11 L165.9 167.94 L166.96 167.79 L168.02 167.66 L169.09 167.54 L170.15 167.44 L171.22 167.36 L172.29 167.3 L173.37 167.25 L174.44 167.23 L175.51 167.22 L176.59 167.23 L177.66 167.26 L178.74 167.3 L179.82 167.36 L180.89 167.45 L181.97 167.55 L183.04 167.66 L184.11 167.8 L185.18 167.95 L186.24 168.12 L187.3 168.31 L188.36 168.52 L189.42 168.75 L190.47 168.99 L191.51 169.25 L192.56 169.53 L193.59 169.82 L194.63 170.13 L195.65 170.46 L196.67 170.81 L197.69 171.18 L198.7 171.56 L199.7 171.96 L200.69 172.37 L201.68 172.8 L202.66 173.25 L203.64 173.71 L204.6 174.2 L205.56 174.69 L206.51 175.21 L207.45 175.73 L208.38 176.28 L209.3 176.84 L210.21 177.42 L211.11 178.01 L212.01 178.61 L212.89 179.23 L213.76 179.87 L214.62 180.52 L215.47 181.18 L216.31 181.86 L217.13 182.55 L217.95 183.26 L218.75 183.98 L219.54 184.71 L220.32 185.46 L221.09 186.22 L221.84 186.99 L222.58 187.78 L223.3 188.58 L224.02 189.38 L224.72 190.21 L225.4 191.04 L226.14 191.97 L227 193.07 L227.92 194.25 L228.85 195.43 L229.77 196.62 L230.7 197.8 L231.62 198.99 L234.4 202.54 L235.32 203.72 L236.25 204.9 L237.17 206.09 L238.1 207.27 L239.02 208.45 L239.95 209.64 L241.79 212.01 L242.72 213.19 L244.57 215.56 L245.49 216.74 L246.42 217.92 L247.34 219.11 L248.27 220.29 L249.19 221.48 L250.12 222.66 L251.04 223.84 L251.97 225.03 L252.89 226.21 L253.82 227.39 L254.74 228.58 L256.59 230.95 L257.52 232.13 L258.44 233.31 L259.37 234.5 L260.29 235.68 L262.14 238.05 L263.07 239.23 L263.99 240.41 L264.91 241.6 L265.84 242.78 L266.76 243.97 L267.69 245.15 L269.54 247.52 L270.46 248.7 L271.39 249.88 L272.31 251.07 L273.24 252.25 L274.16 253.44 L275.09 254.62 L276.94 256.99 L277.86 258.17 L279.71 260.54 L280.64 261.72 L281.56 262.9 L282.49 264.09 L283.41 265.27 L284.34 266.46 L285.26 267.64 L287.11 270.01 L288.04 271.19 L288.96 272.37 L289.88 273.56 L291.73 275.93 L292.66 277.11 L293.58 278.29 L294.51 279.48 L295.43 280.66 L297.28 283.03 L298.21 284.21 L300.06 286.58 L300.98 287.76 L301.91 288.95 L302.83 290.13 L303.76 291.31 L304.68 292.5 L305.61 293.68 L306.53 294.86 L307.46 296.05 L308.38 297.23 L309.31 298.42 L310.23 299.6 L312.08 301.97 L313 303.15 L314.85 305.52 L315.78 306.7 L316.7 307.89 L317.63 309.07 L318.55 310.25 L319.48 311.44 L321.33 313.8 L322.25 314.99 L324.1 317.36 L325.03 318.54 L326.88 320.91 L327.8 322.09 L329.65 324.46 L330.58 325.64 L331.5 326.82 L332.43 328.01 L333.35 329.19 L334.28 330.38 L335.2 331.56 L336.12 332.74 L337.05 333.93 L338.9 336.29 L339.82 337.48 L341.67 339.85 L342.6 341.03 L344.45 343.4 L345.37 344.58 L347.22 346.95 L348.15 348.13 L350 350.5 L350.92 351.68 L351.85 352.87 L352.77 354.05 L353.7 355.23 L354.62 356.42 L355.55 357.6 L357.4 359.97 L359.25 362.34 L360.17 363.52 L362.02 365.89 L363.87 368.25 L364.79 369.44 L365.72 370.62 L366.64 371.81 L367.57 372.99 L368.49 374.17 L368.88 374.65 L369.83 375.82 L370.63 376.74 L371.64 377.86 L372.48 378.75 L373.54 379.81 L374.43 380.66 L375.54 381.67 L376.46 382.48 L377.62 383.44 L378.58 384.2 L379.78 385.1 L380.78 385.81 L382.02 386.66 L383.05 387.32 L384.33 388.11 L385.39 388.72 L386.71 389.44 L387.8 390.01 L389.15 390.66 L390.26 391.18 L391.64 391.77 L392.78 392.23 L394.19 392.75 L395.34 393.15 L396.77 393.61 L397.95 393.96 L399.4 394.35 L400.59 394.64 L402.06 394.96 L403.26 395.19 L404.74 395.44 L405.96 395.61 L407.45 395.79 L408.67 395.91 L410.17 396.02 L411.39 396.08 L412.89 396.11 L413.5 396.12 L426.33 396.12 L428.01 396.06 L429.68 395.9 L431.34 395.62 L432.97 395.24 L434.58 394.76 L436.15 394.16 L437.68 393.47 L439.16 392.68 L440.59 391.79 L441.96 390.81 L443.25 389.75 L444.48 388.6 L445.63 387.37 L446.69 386.08 L447.67 384.71 L448.56 383.28 L449.35 381.8 L450.04 380.27 L450.64 378.7 L451.12 377.09 L451.5 375.46 L451.78 373.8 L451.94 372.13 L452 370.45 L451.94 368.77 L451.78 367.1 L451.5 365.44 L451.12 363.81 L450.64 362.2 L450.04 360.63 L449.35 359.1 L448.56 357.62 L447.67 356.19 L446.69 354.82 L445.63 353.53 L444.48 352.3 L443.25 351.15 L441.96 350.09 L440.59 349.11 L439.16 348.22 L437.68 347.43 L436.15 346.74 L434.58 346.14 L432.97 345.66 L431.34 345.28 L429.68 345 L428.01 344.84 L426.33 344.78 L413.8 344.78 L413.22 344.77 L412.94 344.75 L412.67 344.72 L412.4 344.67 L412.13 344.61 L411.86 344.54 L411.6 344.46 L411.34 344.36 L411.09 344.25 L410.84 344.13 L410.6 344 L410.37 343.85 L410.14 343.7 L409.92 343.53 L409.71 343.36 L409.5 343.17 L409.31 342.98 L409.12 342.77 L408.76 342.32 L408.02 341.38 L407.1 340.2 L406.17 339.02 L405.25 337.83 L404.32 336.65 L402.47 334.28 L400.62 331.91 L399.7 330.73 L397.85 328.36 L396 326 L395.07 324.81 L394.15 323.63 L393.23 322.44 L392.3 321.26 L391.38 320.08 L390.45 318.89 L388.6 316.53 L387.68 315.34 L385.83 312.97 L384.9 311.79 L383.05 309.42 L382.13 308.24 L380.28 305.87 L379.35 304.69 L377.5 302.32 L376.58 301.14 L375.65 299.95 L374.73 298.77 L373.8 297.59 L372.88 296.4 L371.95 295.22 L371.03 294.04 L370.11 292.85 L368.26 290.48 L367.33 289.3 L365.48 286.93 L364.56 285.75 L362.71 283.38 L361.78 282.2 L359.93 279.83 L359.01 278.65 L358.08 277.46 L357.16 276.28 L356.23 275.1 L355.31 273.91 L353.46 271.55 L352.53 270.36 L350.68 267.99 L349.76 266.81 L348.83 265.63 L347.91 264.44 L346.98 263.26 L346.06 262.08 L345.14 260.89 L344.21 259.71 L343.29 258.52 L342.36 257.34 L341.44 256.16 L340.51 254.97 L338.66 252.61 L337.74 251.42 L335.89 249.05 L334.96 247.87 L334.04 246.69 L333.11 245.5 L332.19 244.32 L330.34 241.95 L329.41 240.77 L328.49 239.59 L327.56 238.4 L325.71 236.03 L324.79 234.85 L323.86 233.67 L322.94 232.48 L322.02 231.3 L321.09 230.12 L320.17 228.93 L318.32 226.56 L317.39 225.38 L315.54 223.01 L314.62 221.83 L313.69 220.65 L312.77 219.46 L311.84 218.28 L310.92 217.09 L309.99 215.91 L308.14 213.54 L307.22 212.36 L306.29 211.18 L305.37 209.99 L304.44 208.81 L303.52 207.63 L302.59 206.44 L300.74 204.07 L299.82 202.89 L298.9 201.71 L297.97 200.52 L297.05 199.34 L295.2 196.97 L294.27 195.79 L293.35 194.6 L292.42 193.42 L291.5 192.24 L290.57 191.05 L289.65 189.87 L288.72 188.69 L287.8 187.5 L286.87 186.32 L285.95 185.13 L285.02 183.95 L283.17 181.58 L282.25 180.4 L280.4 178.03 L279.47 176.85 L278.55 175.67 L277.62 174.48 L276.7 173.3 L275.77 172.11 L274.85 170.93 L272.08 167.38 L271.15 166.2 L270.23 165.01 L269.3 163.83 L268.38 162.64 L267.45 161.46 L266.53 160.28 L266.39 160.11 L265.45 158.93 L265.18 158.59 L264.22 157.42 L263.95 157.09 L262.97 155.94 L262.69 155.62 L261.69 154.48 L261.4 154.16 L260.38 153.05 L260.09 152.73 L259.05 151.63 L258.76 151.32 L257.7 150.24 L257.4 149.93 L256.33 148.87 L256.02 148.57 L254.93 147.52 L254.62 147.23 L253.51 146.2 L253.19 145.91 L252.07 144.9 L251.74 144.62 L250.6 143.63 L250.27 143.35 L249.12 142.38 L248.78 142.1 L247.61 141.15 L247.27 140.88 L246.08 139.95 L245.74 139.69 L244.54 138.78 L244.19 138.52 L242.97 137.63 L242.62 137.38 L241.39 136.51 L241.03 136.27 L239.78 135.42 L239.42 135.18 L238.16 134.35 L237.8 134.12 L236.52 133.31 L236.15 133.09 L234.86 132.3 L234.49 132.08 L233.19 131.32 L232.82 131.1 L231.5 130.36 L231.12 130.15 L229.79 129.44 L229.41 129.23 L228.07 128.54 L227.69 128.34 L226.34 127.67 L225.95 127.48 L224.59 126.83 L224.2 126.65 L222.82 126.02 L222.43 125.84 L221.05 125.24 L220.65 125.07 L219.26 124.49 L218.86 124.33 L217.45 123.77 L217.05 123.61 L215.64 123.08 L215.23 122.93 L213.81 122.42 L213.4 122.28 L211.98 121.79 L211.57 121.66 L210.13 121.19 L209.72 121.07 L208.27 120.63 L207.86 120.51 L206.41 120.09 L205.99 119.98 L204.53 119.59 L204.11 119.48 L202.65 119.12 L202.23 119.02 L200.76 118.68 L200.34 118.58 L198.86 118.27 L198.44 118.18 L196.96 117.89 L196.53 117.81 L195.05 117.55 L194.62 117.48 L193.13 117.24 L192.7 117.17 L191.21 116.95 L190.78 116.9 L189.28 116.71 L188.85 116.66 L187.35 116.49 L186.92 116.45 L185.42 116.31 L184.99 116.27 L183.49 116.16 L183.06 116.13 L181.55 116.04 L181.12 116.02 L179.61 115.96 L179.18 115.94 L177.67 115.9 L177.24 115.9 L175.73 115.88 L175.3 115.88 L173.79 115.9 L173.37 115.9 L171.86 115.94 L171.44 115.95 L169.94 116.02 L169.51 116.04 L168.01 116.13 L167.58 116.15 L166.08 116.27 L165.66 116.3 L164.16 116.44 L163.73 116.48 L162.24 116.65 L161.82 116.7 L160.33 116.88 L159.9 116.94 L158.42 117.15 L157.99 117.22 L156.51 117.46 L156.09 117.53 L154.61 117.79 L154.19 117.87 L152.71 118.15 L152.29 118.24 L150.82 118.55 L150.4 118.64 L148.94 118.98 L148.52 119.08 L147.07 119.44 L146.65 119.55 L145.2 119.93 L144.79 120.04 L143.34 120.45 L142.93 120.57 L141.49 121.01 L141.08 121.13 L139.65 121.59 L139.25 121.72 L137.82 122.2 L137.42 122.34 L136 122.85 L135.6 123 L134.2 123.52 L133.8 123.68 L132.4 124.23 L132 124.39 L130.61 124.96 L130.22 125.13 L128.84 125.73 L128.45 125.9 L127.08 126.52 L126.69 126.7 L125.34 127.35 L124.95 127.53 L123.61 128.2 L123.22 128.39 L121.89 129.08 L121.51 129.28 L120.19 129.99 L119.81 130.2 L118.5 130.93 L118.13 131.14 L116.83 131.9 L116.46 132.12 L115.18 132.89 L114.81 133.12 L113.54 133.91 L113.18 134.15 L111.92 134.96 L111.56 135.2 L110.32 136.04 L109.96 136.28 L108.73 137.14 L108.38 137.39 L107.17 138.27 L106.82 138.53 L105.62 139.43 L105.28 139.69 L104.09 140.61 L103.76 140.87 L102.59 141.81 L102.25 142.08 L101.1 143.04 L100.77 143.32 L99.63 144.3 L99.31 144.58 L98.19 145.58 L97.87 145.87 L96.77 146.88 L96.45 147.18 L95.36 148.21 L95.06 148.51 L93.99 149.56 L93.68 149.87 L92.63 150.94 L92.33 151.24 L91.3 152.33 L91 152.65 L89.99 153.75 L89.7 154.07 L88.7 155.19 L88.42 155.51 L87.44 156.65 L87.16 156.98 L86.2 158.13 L85.93 158.47 L84.99 159.64 L84.73 159.97 L83.81 161.16 L83.55 161.5 L82.65 162.7 L82.39 163.05 L81.51 164.26 L81.26 164.61 L80.4 165.84 L80.16 166.2 L79.32 167.44 L79.08 167.8 L78.27 169.06 L78.03 169.42 L77.24 170.69 L77.01 171.06 L76.24 172.34 L76.02 172.71 L75.26 174.01 L75.05 174.38 L74.32 175.69 L74.11 176.07 L73.4 177.39 L73.2 177.77 L72.51 179.1 L72.32 179.49 L71.65 180.83 L71.47 181.22 L70.82 182.57 L70.64 182.96 L70.02 184.33 L69.85 184.72 L69.25 186.1 L69.08 186.49 L68.51 187.88 L68.35 188.28 L67.8 189.68 L67.64 190.08 L67.12 191.48 L66.97 191.88 L66.46 193.3 L66.32 193.7 L65.84 195.13 L65.71 195.53 L65.25 196.96 L65.13 197.37 L64.69 198.81 L64.57 199.22 L64.16 200.67 L64.05 201.08 L63.67 202.53 L63.56 202.95 L63.2 204.4 L63.1 204.82 L62.76 206.28 L62.67 206.7 L62.36 208.17 L62.27 208.59 L61.99 210.07 L61.91 210.49 L61.65 211.97 L61.58 212.39 L61.34 213.87 L61.27 214.3 L61.06 215.78 L61 216.21 L60.82 217.7 L60.77 218.12 L60.6 219.61 L60.56 220.04 L60.42 221.54 L60.39 221.96 L60.27 223.46 L60.25 223.89 L60.16 225.39 L60.14 225.82 L60.07 227.32 L60.06 227.74 L60.02 229.25 L60.02 229.67 L60 231.18 L60 231.39 L60 232.93 L60 280.61 L60 280.82 L60.02 282.33 L60.02 282.75 L60.06 284.26 L60.07 284.68 L60.14 286.18 L60.16 286.61 L60.25 288.11 L60.27 288.54 L60.39 290.04 L60.42 290.46 L60.56 291.96 L60.6 292.39 L60.77 293.88 L60.82 294.3 L61 295.79 L61.06 296.22 L61.27 297.7 L61.34 298.13 L61.58 299.61 L61.65 300.03 L61.91 301.51 L61.99 301.93 L62.27 303.41 L62.36 303.83 L62.67 305.3 L62.76 305.72 L63.1 307.18 L63.2 307.6 L63.56 309.05 L63.67 309.47 L64.05 310.92 L64.16 311.33 L64.57 312.78 L64.69 313.19 L65.13 314.63 L65.25 315.04 L65.71 316.47 L65.84 316.87 L66.32 318.3 L66.46 318.7 L66.97 320.12 L67.12 320.52 L67.64 321.92 L67.8 322.32 L68.35 323.72 L68.51 324.12 L69.08 325.51 L69.25 325.9 L69.85 327.28 L70.02 327.67 L70.64 329.04 L70.82 329.43 L71.47 330.78 L71.65 331.17 L72.32 332.51 L72.51 332.9 L73.2 334.23 L73.4 334.61 L74.11 335.93 L74.32 336.31 L75.05 337.62 L75.26 337.99 L76.02 339.29 L76.24 339.66 L77.01 340.94 L77.24 341.31 L78.03 342.58 L78.27 342.94 L79.08 344.2 L79.32 344.56 L80.16 345.8 L80.4 346.16 L81.26 347.39 L81.51 347.74 L82.39 348.95 L82.65 349.3 L83.55 350.5 L83.81 350.84 L84.73 352.03 L84.99 352.36 L85.93 353.53 L86.2 353.87 L87.16 355.02 L87.44 355.35 L88.42 356.49 L88.7 356.81 L89.7 357.93 L89.99 358.25 L91 359.35 L91.3 359.67 L92.33 360.76 L92.63 361.06 L93.68 362.13 L93.99 362.44 L95.06 363.49 L95.36 363.79 L96.45 364.82 L96.77 365.12 L97.87 366.13 L98.19 366.42 L99.31 367.42 L99.63 367.7 L100.77 368.68 L101.1 368.96 L102.25 369.92 L102.59 370.19 L103.76 371.13 L104.09 371.39 L105.28 372.31 L105.62 372.57 L106.82 373.47 L107.17 373.73 L108.38 374.61 L108.73 374.86 L109.96 375.72 L110.32 375.96 L111.56 376.8 L111.92 377.04 L113.18 377.85 L113.54 378.09 L114.81 378.88 L115.18 379.11 L116.46 379.88 L116.83 380.1 L118.13 380.86 L118.5 381.07 L119.81 381.8 L120.19 382.01 L121.51 382.72 L121.89 382.92 L123.22 383.61 L123.61 383.8 L124.95 384.47 L125.34 384.65 L126.69 385.3 L127.08 385.48 L128.45 386.1 L128.84 386.27 L130.22 386.87 L130.61 387.04 L132 387.61 L132.4 387.77 L133.8 388.32 L134.2 388.48 L135.6 389 L136 389.15 L137.42 389.66 L137.82 389.8 L139.25 390.28 L139.65 390.41 L141.08 390.87 L141.49 390.99 L142.93 391.43 L143.34 391.55 L144.79 391.96 L145.2 392.07 L146.65 392.45 L147.07 392.56 L148.52 392.92 L148.94 393.02 L150.4 393.36 L150.82 393.45 L152.29 393.76 L152.71 393.85 L154.19 394.13 L154.61 394.21 L156.09 394.47 L156.51 394.54 L157.99 394.78 L158.42 394.85 L159.9 395.06 L160.33 395.12 L161.82 395.3 L162.24 395.35 L163.73 395.52 L164.16 395.56 L165.66 395.7 L166.08 395.73 L167.58 395.85 L168.01 395.87 L169.51 395.96 L169.94 395.98 L171.44 396.05 L171.86 396.06 L173.37 396.1 L173.79 396.1 L175.3 396.12 L175.73 396.12 L177.25 396.1 L177.69 396.1 L179.22 396.06 L179.65 396.04 L181.18 395.98 L181.62 395.96 L183.14 395.87 L183.58 395.84 L185.1 395.72 L185.54 395.68 L187.06 395.54 L187.49 395.5 L189.01 395.33 L189.44 395.27 L190.96 395.08 L191.39 395.02 L192.9 394.8 L193.33 394.73 L194.84 394.49 L195.27 394.42 L196.77 394.14 L197.2 394.06 L198.7 393.77 L199.13 393.68 L200.62 393.36 L201.05 393.26 L202.54 392.91 L202.96 392.81 L204.44 392.44 L204.86 392.33 L206.34 391.93 L206.76 391.81 L208.23 391.39 L208.65 391.26 L210.11 390.82 L210.52 390.68 L211.98 390.21 L212.39 390.07 L213.83 389.58 L214.25 389.43 L215.68 388.91 L216.09 388.76 L217.52 388.21 L217.92 388.05 L219.34 387.48 L219.74 387.31 L221.15 386.72 L221.55 386.55 L222.95 385.93 L223.35 385.75 L224.73 385.11 L225.13 384.92 L226.5 384.25 L226.89 384.06 L228.26 383.37 L228.65 383.17 L230 382.46 L230.38 382.25 L231.72 381.52 L232.1 381.31 L233.43 380.55 L233.81 380.33 L235.12 379.55 L235.49 379.32 L236.79 378.52 L237.16 378.29 L238.45 377.47 L238.82 377.23 L240.09 376.38 L240.45 376.14 L241.71 375.27 L242.06 375.02 L243.31 374.13 L243.66 373.87 L244.89 372.96 L245.24 372.7 L246.45 371.77 L246.62 371.64 L250.27 368.79 L251.48 367.84 L258.76 362.15 L259.98 361.2 L262.41 359.3 L263.62 358.36 L267.26 355.51 L268.48 354.56 L272.12 351.72 L273.33 350.77 L274.54 349.82 L275.76 348.87 L276.97 347.92 L278.19 346.97 L279.4 346.02 L280.61 345.08 L281.9 344 L283.12 342.84 L284.26 341.6 L285.31 340.3 L286.28 338.92 L287.15 337.49 L287.93 336 L288.61 334.46 L289.19 332.89 L289.66 331.27 L290.03 329.64 L290.29 327.98 L290.44 326.3 L290.48 324.62 L290.41 322.95 L290.23 321.28 L289.94 319.62 L289.54 317.99 L289.04 316.39 L288.44 314.82 L287.73 313.3 L286.93 311.82 L286.03 310.4 L285.04 309.05 L283.96 307.76 L282.8 306.54 L281.56 305.4 L280.26 304.35 L278.88 303.38 L277.45 302.51 L275.96 301.73 L274.42 301.05 L272.85 300.47 L271.23 300 L269.6 299.63 L267.94 299.37 L266.26 299.22 L264.58 299.18 L262.91 299.25 L261.24 299.43 L259.58 299.72 L257.95 300.12 L256.35 300.62 L254.78 301.22 L253.26 301.93 L251.78 302.73 L250.36 303.63 L249.01 304.62 L247.79 305.57 Z" fill="#2e3436" fill-rule="evenodd"/>
</svg>
